<svg id="Layer_1" data-name="Layer 1" xmlns="http://www.w3.org/2000/svg" viewBox="0 0 568.1 540.98"><defs><style>.cls-1{fill:url(#linear-gradient);}</style><linearGradient id="linear-gradient" x1="221.89" y1="596.84" x2="618.84" y2="199.89" gradientUnits="userSpaceOnUse"><stop offset="0" stop-color="#333"/><stop offset="0.01" stop-color="#3e3e3e"/><stop offset="0.04" stop-color="#505050"/><stop offset="0.07" stop-color="#5d5d5d"/><stop offset="0.11" stop-color="#646464"/><stop offset="0.2" stop-color="#666"/><stop offset="0.21" stop-color="#717171"/><stop offset="0.24" stop-color="#838383"/><stop offset="0.26" stop-color="#909090"/><stop offset="0.3" stop-color="#979797"/><stop offset="0.38" stop-color="#999"/><stop offset="0.66" stop-color="#333"/><stop offset="1" stop-color="#1a1a1a"/></linearGradient></defs><title>Cam</title><path class="cls-1" d="M439.84,125.71c-139.76,0-253.06,113.3-253.06,253.06s113.3,253.06,253.06,253.06S692.9,518.53,692.9,378.77,579.6,125.71,439.84,125.71ZM618.41,557.35a252.55,252.55,0,1,1,74-178.58A251.75,251.75,0,0,1,618.41,557.35ZM449.23,465.21l-0.54-4.76a83.18,83.18,0,0,1-8.86.48,81.77,81.77,0,0,1-45.52-13.76l-2.24,3.36c-1.53-1-3-2.1-4.47-3.21l-0.47.62a86.57,86.57,0,0,0,52.69,17.79A87.79,87.79,0,0,0,449.23,465.21Zm-28,7.91,0.44-2.28a93.15,93.15,0,0,1-9.38-2.35l-0.67,2.21A96.63,96.63,0,0,0,421.18,473.12Zm82.25-30.69A89.87,89.87,0,0,1,461.92,466l0.22,0.85a91,91,0,0,0,48.34-31l-0.69-.56A90.35,90.35,0,0,1,503.43,442.42Zm-26.81,44.49,0.17,0.49a114.27,114.27,0,0,0,16.52-7.11l-0.24-.46A113.65,113.65,0,0,1,476.62,486.91ZM364.72,390.13a75.94,75.94,0,0,0,31,50.5l0.3-.43a75.24,75.24,0,0,1-30.84-50.15Zm43.34-90.77,1.86,4.74a80.18,80.18,0,0,1,77.58,10.69l3.07-4.06A85.25,85.25,0,0,0,408.06,299.36Zm92.77,28.17,3.92-3.25a85.76,85.76,0,0,0-9.51-9.75l-3.35,3.83q2,1.77,3.93,3.67Q498.45,324.66,500.83,327.53Zm-83.41,123.3-0.15.48a76,76,0,0,0,61.27-7.18l-0.26-.44A75.6,75.6,0,0,1,417.42,450.83ZM439.84,493a113.93,113.93,0,0,1-41.12-7.63l0.92-2.38a111.56,111.56,0,0,1-29.11-16.66l-1.59,2A113.93,113.93,0,0,1,350.54,450l2-1.59a111.76,111.76,0,0,1-17.14-109.15l-2.39-.9a114.6,114.6,0,0,1,38.51-51.08l-0.31-.42a114.72,114.72,0,0,0,81.3,206l-0.06-.51A115.16,115.16,0,0,1,439.84,493ZM425.76,304.12l0.1,0.51a75.37,75.37,0,0,1,76.74,32.28l0.43-.28A75.9,75.9,0,0,0,425.76,304.12Zm80.73,110a75.74,75.74,0,0,1-13.31,18c-0.23.23-.48,0.45-0.72,0.68l0.36,0.37a76.25,76.25,0,0,0,14.13-18.82Zm-133.6-71.26A76,76,0,0,0,369,351.4l0.48,0.19a75.34,75.34,0,0,1,3.9-8.49Zm111.31,102,2.86,4.21a85.63,85.63,0,0,0,18.28-16.81l-4-3.2A79.93,79.93,0,0,1,484.2,444.89ZM273.3,638.33a306.78,306.78,0,0,0,42.59,22.84l0.56-1.27a305.49,305.49,0,0,1-42.39-22.74ZM242.58,409.06a198.56,198.56,0,0,0,7.14,30.44l0.86-.27a197.64,197.64,0,0,1-7.11-30.3Zm69.16-30.29A128.11,128.11,0,0,0,553,438.88l-2.05-1.09a125.72,125.72,0,1,1-3.2-123.69l2-1.2A128.11,128.11,0,0,0,311.74,378.77ZM508.18,265.86l-0.46.77a130.83,130.83,0,0,1,13.34,9.26l0.55-.7A131.7,131.7,0,0,0,508.18,265.86ZM269.84,276.06l3.8,2.3A194,194,0,0,1,311,233.6l-3-3.33a198.1,198.1,0,0,1,37-25.93l2.12,3.9a194.3,194.3,0,0,1,192,3.86l2.27-3.82a199.21,199.21,0,0,1,75.73,81.46l0.81-.4A199.17,199.17,0,0,0,474.67,182.46c-108.46-19.27-212,53-231.29,161.5a201.41,201.41,0,0,0-2.64,21.9l0.9,0.06a200.09,200.09,0,0,1,2.63-21.8A198.07,198.07,0,0,1,269.84,276.06ZM396,317.37a75.39,75.39,0,0,1,18.27-9.59l-0.17-.49a75.9,75.9,0,0,0-18.4,9.65ZM147,470.76l6.55-2.05a299.79,299.79,0,0,1-13.68-89.07l-6.88,0a306.13,306.13,0,0,1,7.78-69.4l6.69,1.54A298.74,298.74,0,0,1,253,144.12a302.22,302.22,0,0,1,34.82-23.93H272.17q-12.42,8.07-24.26,17.48c-133.22,106-155.26,300-49.24,433.18a311.41,311.41,0,0,0,22.68,25.45l1-1A309.62,309.62,0,0,1,199.75,570,306.13,306.13,0,0,1,147,470.76ZM595.4,406.41a157.32,157.32,0,0,0-11.68-93l-0.17.08q-1.89-4.16-4-8.2l-4,2.09A153.41,153.41,0,0,1,527.6,504.65a154.56,154.56,0,0,1-19.27,11.46l1.34,2.68A156,156,0,0,1,459,534.12l0.18,1.53A158.13,158.13,0,0,0,595.4,406.41ZM494.78,278.63l0.25-.45A114.15,114.15,0,0,0,439.84,264h-0.76v0.52h0.76A113.64,113.64,0,0,1,494.78,278.63Zm40,201.27,6,6.49a148.25,148.25,0,0,0,44.56-137.77l-8.68,1.74A139.41,139.41,0,0,1,534.8,479.91ZM520.25,297a115.51,115.51,0,0,0-11.73-10.07l-0.31.41a114.84,114.84,0,0,1,11.68,10ZM568.92,401.8A131,131,0,0,1,492.34,499l0.35,0.82a132,132,0,0,0,79.14-122.37h-0.9A131.35,131.35,0,0,1,568.92,401.8Zm-41.57,84.53q-3.65,2.93-7.48,5.61-5.3,3.7-10.94,6.9l4.37,7.7a149.15,149.15,0,0,0,19.59-13.31ZM442.1,510v0.9a131.09,131.09,0,0,0,21.37-2.14l-0.15-.88A130.19,130.19,0,0,1,442.1,510ZM558.2,322.53a131.14,131.14,0,0,1,10.86,34.19l0.89-.15A132,132,0,0,0,559,322.14Zm-276.7,2.34-8.37,40.3A165.63,165.63,0,0,0,275.31,409l4-.72a163.29,163.29,0,0,1,6.18-82.5l-3.84-1.31Zm2.16,65.24-1.52.11a158.13,158.13,0,0,0,38.35,92.18l1.16-1A156.51,156.51,0,0,1,283.66,390.11Zm0.28-71.88,3.77,1.45a161.74,161.74,0,0,1,6.88-15.34L291,302.52A168.16,168.16,0,0,0,283.94,318.23Zm29.14,116.46L305,438.3a148.87,148.87,0,0,0,23.22,36.41l6.69-5.79A139,139,0,0,1,313.08,434.69Zm76,19.55,0.49-.74a90.53,90.53,0,0,1-13.45-11.08q-1.72-1.72-3.34-3.54l-0.66.59A91.36,91.36,0,0,0,389.08,454.24ZM288.94,368.65l8.3,0.53a144.33,144.33,0,0,1,1.87-15.31,142.16,142.16,0,0,1,37.39-73.73l-5.07-4.85c2.21-2.31,4.51-4.51,6.86-6.67l-0.91-1a150.51,150.51,0,0,0-46.47,84.79A152.33,152.33,0,0,0,288.94,368.65ZM326,269l1.12,1.06a157.31,157.31,0,0,1,23.05-19.66q3.47-2.42,7.07-4.65l-0.81-1.3A158.86,158.86,0,0,0,326,269ZM554.84,540.67l0.52,0.73a200.45,200.45,0,0,0,20.8-17l-0.61-.66A199.69,199.69,0,0,1,554.84,540.67ZM332.22,454c-0.33-.47-0.63-1-1-1.43l-0.74.5a132.61,132.61,0,0,0,27.91,29.9l0.56-.71A131.65,131.65,0,0,1,332.22,454Zm366.3,90.2a306,306,0,0,1-58,66.89l0.91,1.05a307.14,307.14,0,0,0,58.24-67.2Zm-63-131.85c-0.07.44-.14,0.87-0.21,1.3a197.58,197.58,0,0,1-40.81,89.77l0.69,0.57a198.44,198.44,0,0,0,41-90.18c0.08-.44.14-0.87,0.21-1.3Zm-16.17-1.53A182.37,182.37,0,0,0,471.67,199.3C372.51,181.68,277.84,247.79,260.21,347a181.51,181.51,0,0,0,14,108.4l1.44-.67c-2.18-4.7-4.13-9.51-5.9-14.39l7.92-2.86a172.43,172.43,0,0,1,37.53-177.67l-6.11-5.85a181.44,181.44,0,0,1,53.44-38.53l3.61,7.65a171.5,171.5,0,0,1,103.76-13.84c1.33,0.24,2.66.49,4,.76l-0.67,3.47a168.79,168.79,0,0,1,88.63,282l2.54,2.47a172.78,172.78,0,0,1-88.57,49.52l1.77,8.27A181.46,181.46,0,0,1,359.77,541l-0.7,1.42A182.48,182.48,0,0,0,619.32,410.76ZM413,575.6l-0.12.89a198.76,198.76,0,0,0,57.53-.5l-0.14-.89A198,198,0,0,1,413,575.6ZM347.91,285.26a130.81,130.81,0,0,1,95.23-37.54l0-.9a132,132,0,0,0-95.89,37.78Zm91.87,2.6a90.49,90.49,0,0,0-51.47,16l0.07,0.1c-1.44,1-2.87,2-4.25,3.09l1.59,2a88.24,88.24,0,0,1,116.52,7.3,88.85,88.85,0,0,1,8.43,9.76l1.38-1a89.72,89.72,0,0,1,13.78,27.17l0.85-.25A91,91,0,0,0,439.78,287.86Zm114.68,86.26a114.35,114.35,0,0,0-6.07-32.53l-0.49.17a113.88,113.88,0,0,1,6,32.39ZM439.84,273.88a104.89,104.89,0,1,0,60,190.94l-0.52-.75c-2.44,1.7-5,3.29-7.56,4.79l-2.42-4.2a99.17,99.17,0,0,1-104.39-3.38l-2.7,4.05A104.43,104.43,0,0,1,355,439l4-2.82a98.66,98.66,0,0,1-18.28-57.37c0-.78,0-1.56,0-2.33l2,0A97.08,97.08,0,0,1,493.56,297.9l1.14-1.69a99.38,99.38,0,0,1,37,45.18l4.51-1.83a104.37,104.37,0,0,1,3.56,68.2l0.88,0.25A105,105,0,0,0,439.84,273.88ZM344.52,389.42a95.26,95.26,0,0,0,11.4,36l2-1.14a92.92,92.92,0,0,1-11.11-35.14Zm104.33,85.1a95.27,95.27,0,0,0,24.62-5.65l-0.81-2.18a93.9,93.9,0,0,1-47.34,4.8l-0.35,2.3,0.22,0Zm61.68-122.07a75,75,0,0,1,3.33,11.8l0.51-.09A75.41,75.41,0,0,0,511,352.27ZM357.67,378.77c0-.65,0-1.29,0-1.93l1.69,0c0.06-2.44.24-4.85,0.51-7.23l-6.45-.74a88,88,0,0,0-.56,9.88,86.84,86.84,0,0,0,4.75,28.41l4.54-1.57A82,82,0,0,1,357.67,378.77Zm-7.74,5.53-0.88.05a90.4,90.4,0,0,0,7.94,32l0.8-.36A89.57,89.57,0,0,1,349.93,384.3Zm66.22-154.8,1.3,8.24a142.67,142.67,0,0,1,47.31.46c1.11,0.2,2.21.41,3.3,0.63l-0.56,2.88c4.16,0.84,8.23,1.88,12.23,3.07L483,234a152.74,152.74,0,0,0-16.74-4A151,151,0,0,0,416.15,229.5Zm-15.51-3.89,0.38,1.48a155.65,155.65,0,0,1,56.64-3.81l0.18-1.53A157.19,157.19,0,0,0,400.64,225.61Zm-77.4,93-0.77-.4a132,132,0,0,0-6.35,107.06l0.84-.31A131.43,131.43,0,0,1,323.24,318.56ZM385.42,221l1.34,3.81a161.56,161.56,0,0,1,63.53-8.33l0.23-4A165.56,165.56,0,0,0,385.42,221Zm54.41,38.46A119.29,119.29,0,1,0,559.12,378.77,119.29,119.29,0,0,0,439.84,259.48Zm84,203.27a118.77,118.77,0,1,1,34.79-84A118.38,118.38,0,0,1,523.82,462.75Z" transform="translate(-131.58 -120.19)"/></svg>