<svg id="Capa_1" data-name="Capa 1" xmlns="http://www.w3.org/2000/svg" viewBox="0 0 512 511.94"><defs><style>.cls-1{fill:#cdc6c5;}.cls-2{fill:#c1b8b7;}</style></defs><title>comment</title><path class="cls-1" d="M7.51,39.61V376.26a32.06,32.06,0,0,0,32.06,32.06H95.69v96.19l96.19-96.19H472.42a32.06,32.06,0,0,0,32.06-32.06V39.61A32.06,32.06,0,0,0,472.42,7.54H39.58A32.06,32.06,0,0,0,7.51,39.61Z" transform="translate(0 -0.03)"/><path class="cls-2" d="M127.75,472.45V384.28H63.62a24,24,0,0,1-24-24V15.56a32.13,32.13,0,0,1,1-8h-1A32.06,32.06,0,0,0,7.51,39.61V376.26a32.06,32.06,0,0,0,32.06,32.06H95.69v96.19Z" transform="translate(0 -0.03)"/><path d="M504.49,103.57A7.51,7.51,0,0,0,512,96.05V39.61A39.62,39.62,0,0,0,472.42,0H39.58A39.62,39.62,0,0,0,0,39.61V376.26a39.62,39.62,0,0,0,39.58,39.58H88.17v88.67A7.58,7.58,0,0,0,101,509.83l94-94H472.42A39.62,39.62,0,0,0,512,376.26V132.12a7.51,7.51,0,0,0-15,0V376.26a24.58,24.58,0,0,1-24.55,24.55H191.87a7.52,7.52,0,0,0-5.31,2.2L103.2,486.37v-78a7.51,7.51,0,0,0-7.51-7.51H39.58A24.58,24.58,0,0,1,15,376.26V39.61A24.58,24.58,0,0,1,39.58,15.06H472.42A24.58,24.58,0,0,1,497,39.61V96.05A7.51,7.51,0,0,0,504.49,103.57Z" transform="translate(0 -0.03)"/></svg>