<svg id="Capa_1" data-name="Capa 1" xmlns="http://www.w3.org/2000/svg" viewBox="0 0 311.61 287.56"><defs><style>.cls-1{fill:#9cc445;}.cls-2{fill:#f3f1f1;}.cls-3{fill:#e6e3e2;}</style></defs><title>like</title><path class="cls-1" d="M171.84,392.27H123.74a16,16,0,0,1-16-16V256a16,16,0,0,1,16-16h48.09a16,16,0,0,1,16,16V376.23A16,16,0,0,1,171.84,392.27Z" transform="translate(-100.2 -112.22)"/><circle class="cls-2" cx="47.59" cy="243.98" r="12.02"/><path class="cls-3" d="M384.25,256a20,20,0,0,0,0-40.08H300.09V167.83c0-48.09-56.11-48.09-56.11-48.09v72.14L187.87,261V364.29l32.06,11.95H368.22a20,20,0,1,0,0-40.08h8a20,20,0,0,0,20-20h0a20,20,0,0,0-20-20h8A20,20,0,0,0,384.25,256Z" transform="translate(-100.2 -112.22)"/><path d="M147.79,336.66a19.54,19.54,0,1,0,19.54,19.54A19.56,19.56,0,0,0,147.79,336.66Zm0,24a4.51,4.51,0,1,1,4.51-4.51A4.51,4.51,0,0,1,147.79,360.7Z" transform="translate(-100.2 -112.22)"/><path d="M411.8,236a27.59,27.59,0,0,0-27.55-27.55H307.6V167.83c0-22.91-11.28-39.85-32.61-49a87.25,87.25,0,0,0-31-6.62,7.51,7.51,0,0,0-7.51,7.51v69.48L192.06,244a23.55,23.55,0,0,0-20.22-11.5H123.74A23.57,23.57,0,0,0,100.2,256V376.23a23.57,23.57,0,0,0,23.55,23.55h48.09a23.57,23.57,0,0,0,23.55-23.55v-1.13l21.92,8.17a7.5,7.5,0,0,0,2.62.47H368.22a27.54,27.54,0,0,0,22.11-44,27.52,27.52,0,0,0,8-40.08,27.51,27.51,0,0,0,4.78-43.7A27.48,27.48,0,0,0,411.8,236ZM180.35,376.23a8.53,8.53,0,0,1-8.52,8.52H123.74a8.53,8.53,0,0,1-8.52-8.52V256a8.53,8.53,0,0,1,8.52-8.52h48.09a8.53,8.53,0,0,1,8.52,8.52V376.23ZM364.21,248.49a7.51,7.51,0,0,0,0,15h20a12.52,12.52,0,0,1,0,25h-20a7.51,7.51,0,0,0,0,15h12a12.52,12.52,0,0,1,0,25H364.54a7.51,7.51,0,1,0,0,15h3.67a12.52,12.52,0,0,1,0,25H221.28l-25.9-9.65V263.71l54.43-67.1a7.51,7.51,0,0,0,1.68-4.73v-64a70,70,0,0,1,17.58,4.76c15.81,6.78,23.5,18.28,23.5,35.17v47.76c0,0.06,0,.11,0,0.17s0,0.11,0,.17a7.51,7.51,0,0,0,7.51,7.51h84.16a12.52,12.52,0,0,1,0,25h-20Z" transform="translate(-100.2 -112.22)"/></svg>